<svg width="71" height="71" viewBox="0 0 71 71" fill="none" xmlns="http://www.w3.org/2000/svg">
<path d="M31.2394 19.41V40.92C31.2394 44.25 30.2944 46.815 28.4044 48.615C26.5444 50.415 24.0244 51.315 20.8444 51.315C17.5144 51.315 14.8444 50.37 12.8344 48.48C10.8244 46.59 9.81941 43.905 9.81941 40.425H17.4694C17.4694 41.745 17.7394 42.75 18.2794 43.44C18.8194 44.1 19.5994 44.43 20.6194 44.43C21.5494 44.43 22.2694 44.13 22.7794 43.53C23.2894 42.93 23.5444 42.06 23.5444 40.92V19.41H31.2394ZM48.885 51.315C46.575 51.315 44.505 50.94 42.675 50.19C40.845 49.44 39.375 48.33 38.265 46.86C37.185 45.39 36.615 43.62 36.555 41.55H44.745C44.865 42.72 45.27 43.62 45.96 44.25C46.65 44.85 47.55 45.15 48.66 45.15C49.8 45.15 50.7 44.895 51.36 44.385C52.02 43.845 52.35 43.11 52.35 42.18C52.35 41.4 52.08 40.755 51.54 40.245C51.03 39.735 50.385 39.315 49.605 38.985C48.855 38.655 47.775 38.28 46.365 37.86C44.325 37.23 42.66 36.6 41.37 35.97C40.08 35.34 38.97 34.41 38.04 33.18C37.11 31.95 36.645 30.345 36.645 28.365C36.645 25.425 37.71 23.13 39.84 21.48C41.97 19.8 44.745 18.96 48.165 18.96C51.645 18.96 54.45 19.8 56.58 21.48C58.71 23.13 59.85 25.44 60 28.41H51.675C51.615 27.39 51.24 26.595 50.55 26.025C49.86 25.425 48.975 25.125 47.895 25.125C46.965 25.125 46.215 25.38 45.645 25.89C45.075 26.37 44.79 27.075 44.79 28.005C44.79 29.025 45.27 29.82 46.23 30.39C47.19 30.96 48.69 31.575 50.73 32.235C52.77 32.925 54.42 33.585 55.68 34.215C56.97 34.845 58.08 35.76 59.01 36.96C59.94 38.16 60.405 39.705 60.405 41.595C60.405 43.395 59.94 45.03 59.01 46.5C58.11 47.97 56.79 49.14 55.05 50.01C53.31 50.88 51.255 51.315 48.885 51.315Z" fill="#F2FAFF"/>
</svg>
