<svg width="71" height="71" viewBox="0 0 71 71" fill="none" xmlns="http://www.w3.org/2000/svg">
<g clip-path="url(#clip0_33_1169)">
<path fill-rule="evenodd" clip-rule="evenodd" d="M32.3629 44.0281C32.5104 46.2454 32.4953 49.8537 32.2748 52.016C32.1629 53.1134 31.9213 53.3392 31.417 53.8276C29.7912 55.402 24.3517 55.7739 23.6777 52.4373C23.4253 52.4275 23.6323 51.3456 23.389 51.3774C22.7777 51.4571 21.6038 50.7189 21.0428 49.5065C21.0509 45.8552 21.3654 32.6669 16.3626 36.2131C15.1995 37.0374 14.6093 38.1644 14.085 39.8538C13.718 41.0331 13.6553 42.4868 13.6196 44.0465C13.5775 45.8672 13.9293 47.8587 13.9764 50.0415C13.9969 51.021 14.118 51.2694 13.5623 52.0993C12.6673 53.438 11.0998 52.3054 10.2523 50.8382C9.8659 50.1692 9.73131 49.1826 9.68483 48.3732C9.13893 38.9407 9.55511 29.1186 11.6468 19.9472C12.3603 16.8174 12.6116 16.3601 14.8919 15.6508C17.3842 14.8746 20.3596 14.7278 22.7988 15.0411C24.8527 14.1731 29.7263 9.45047 31.8262 13.1943C38.3229 11.6727 44.8207 12.5528 50.538 17.6536C53.2702 17.9705 56.1246 17.9522 58.8568 17.8442C59.2546 17.5203 59.7 17.1738 60.1069 16.8724C60.4237 16.6381 60.6874 16.4186 61.0739 16.3389C61.5257 16.2465 62.1084 16.2203 62.2365 16.9444C62.3495 17.5831 62.3932 18.396 62.3522 19.2182C62.3122 20.0114 61.8381 21.0883 61.1015 21.1575C60.3853 20.9133 59.5724 20.7863 58.8568 20.202C56.3197 20.2866 54.7582 20.1166 52.2211 20.202C52.6303 20.7708 52.606 21.1476 52.9092 21.9062C54.8906 26.8624 53.0276 35.2738 51.3915 37.1474C51.211 40.9435 51.4282 44.786 51.4488 48.5955C51.4558 49.9151 51.5309 51.1628 50.5824 52.0309C49.1857 53.3103 46.7492 53.5996 44.9845 52.6385C44.4445 52.3435 44.0775 51.7013 43.6824 51.2271C43.3068 51.2136 42.9852 51.3477 42.7057 51.2468C42.1426 51.0422 41.6772 50.5834 41.3588 49.9568C41.1616 49.5672 41.0654 49.1135 40.901 48.6145C40.901 46.8312 40.8524 46.1304 40.8524 44.3464C38.0224 44.8453 35.1929 45.0577 32.3629 44.0281Z" fill="#F2FAFF" stroke="#101820" stroke-width="0.216"/>
<path fill-rule="evenodd" clip-rule="evenodd" d="M17.8085 19.6578C17.0961 19.3 16.4442 19.1906 15.733 19.2817C15.5838 19.3007 15.5211 19.3113 15.4287 19.5266C15.3773 19.6472 15.3573 19.7891 15.3908 19.9182C15.4487 20.1398 15.4627 20.1285 15.6097 20.1652C15.7989 20.2118 15.994 20.161 16.1854 20.1052C16.6696 19.7354 17.1539 19.8152 17.6377 20.0093C17.8614 19.9987 17.8776 19.8815 17.8085 19.6578Z" fill="#101820" stroke="#101820" stroke-width="0.216"/>
<path fill-rule="evenodd" clip-rule="evenodd" d="M16.2097 22.8836C16.3691 22.4722 16.6491 22.1349 17.1982 22.0855C17.2355 21.7545 17.2036 21.5625 16.8815 21.5745C16.3956 21.9493 16.001 22.3304 15.7567 22.878C15.5649 23.3085 15.5708 23.9351 15.6054 24.4122C15.6313 24.7778 15.7843 25.0727 15.9972 25.3056C16.4248 25.7756 17.0458 25.5498 17.4652 25.2252C18.1603 24.6888 18.8575 23.1765 17.6355 22.5943C17.2501 22.4101 16.6415 22.6275 16.2086 22.9867C16.1853 23.0064 16.1837 22.9535 16.2097 22.8836Z" fill="#101820" stroke="#101820" stroke-width="0.216"/>
<path fill-rule="evenodd" clip-rule="evenodd" d="M16.7648 24.6408C16.7664 24.7283 16.7826 24.818 16.8031 24.9153C16.8172 24.9824 16.8464 25.0247 16.8415 25.0283C16.7248 25.1186 16.5826 25.1581 16.4572 25.0826C16.0324 24.8292 16.0529 24.0403 16.2821 23.6112C16.5204 23.1624 16.9653 22.8455 17.3085 22.8681C17.5339 23.0276 17.6025 23.1673 17.4912 23.2033C17.396 23.2343 17.3501 23.2492 17.2879 23.2908C17.2253 23.3317 17.1447 23.4002 17.1009 23.571C17.1982 23.6133 17.2469 23.5759 17.3442 23.6182C17.3442 23.7354 17.3442 23.9005 17.3442 24.0177C17.2517 23.964 17.1463 23.9245 17.0328 23.9718C16.8447 24.0494 16.7599 24.4093 16.7648 24.6408Z" fill="#F2FAFF"/>
<path fill-rule="evenodd" clip-rule="evenodd" d="M17.5787 35.0451C20.0969 34.0437 21.3011 31.4693 20.8476 28.3564C20.5385 28.3084 20.2212 28.3084 19.8477 28.0057C19.8315 27.8356 19.8148 27.6662 19.7985 27.4962C20.6023 28.0029 21.7465 28.1645 21.6038 26.5406C21.7178 26.4983 21.8805 26.4877 21.9946 26.4447C21.9551 27.5752 21.7935 27.6804 21.2627 28.1652C21.5297 30.5145 21.1255 32.686 19.5061 34.9499C19.4245 35.247 19.5294 35.7036 19.5791 36.0007C18.9932 35.1496 18.2943 35.0444 17.5787 35.0451Z" fill="#101820" stroke="#101820" stroke-width="0.216"/>
<path fill-rule="evenodd" clip-rule="evenodd" d="M48.5128 52.2729C48.4593 51.3068 48.3766 50.4698 48.3545 49.5016C48.3037 47.2934 47.0205 46.8121 46.9513 49.0245C46.9157 50.1811 46.9513 51.2778 46.9513 52.3681C47.4718 52.4105 47.968 52.4853 48.5128 52.2729Z" fill="#F2FAFF" stroke="#101820" stroke-width="0.5"/>
<path fill-rule="evenodd" clip-rule="evenodd" d="M46.9762 52.3682C46.8703 51.1953 46.7497 50.1918 46.814 49.0104C46.9243 46.9702 45.4428 44.8192 45.3434 48.6103C45.3131 49.7733 45.3331 50.7838 45.4385 51.9222C45.8947 52.119 46.4557 52.2567 46.9762 52.3682Z" fill="#F2FAFF" stroke="#101820" stroke-width="0.5"/>
<path fill-rule="evenodd" clip-rule="evenodd" d="M45.4385 52.1134L45.225 47.7811C45.0753 44.5411 44.0808 44.918 43.997 47.5905C43.9565 48.8537 44.0364 49.5439 43.951 50.8078C44.4143 51.2214 44.9104 52.0393 45.4385 52.1134Z" fill="#F2FAFF" stroke="#101820" stroke-width="0.5"/>
<path fill-rule="evenodd" clip-rule="evenodd" d="M28.4108 54.3435C28.4513 53.1536 28.3784 52.4211 28.2886 51.3174C27.866 48.9815 27.3455 48.6844 26.7271 50.4254C26.7271 51.8693 26.7271 52.8671 26.7271 54.3117C27.2882 54.3752 27.8497 54.4493 28.4108 54.3435Z" fill="#F2FAFF" stroke="#101820" stroke-width="0.5"/>
<path fill-rule="evenodd" clip-rule="evenodd" d="M25.3364 53.7062C25.3445 52.2087 25.3521 51.2214 25.3613 49.7246C25.784 47.5263 26.2066 47.7493 26.6298 50.3936C26.6379 51.8163 26.6461 52.7295 26.6542 54.1522C26.2147 54.0845 25.7759 54.0337 25.3364 53.7062Z" fill="#F2FAFF" stroke="#101820" stroke-width="0.5"/>
<path fill-rule="evenodd" clip-rule="evenodd" d="M23.7998 50.7754C23.8566 49.5228 24.0598 48.2701 24.1171 47.0168C23.7263 44.5433 23.3036 44.1079 22.848 45.7112C22.8318 47.3146 22.8156 48.9173 22.7988 50.5206C23.1572 50.7338 23.3766 50.9038 23.7998 50.7754Z" fill="#F2FAFF" stroke="#101820" stroke-width="0.5"/>
<path fill-rule="evenodd" clip-rule="evenodd" d="M42.3896 50.3618C42.4717 49.0358 42.3631 47.9278 42.3858 46.63C42.4133 45.0499 43.6095 45.5094 43.664 46.9596C43.7192 48.4141 43.7738 49.1508 43.8289 50.5848C43.2954 50.6102 42.8565 50.6822 42.3896 50.3618Z" fill="#F2FAFF" stroke="#101820" stroke-width="0.5"/>
<path fill-rule="evenodd" clip-rule="evenodd" d="M42.3161 50.4254C42.2836 49.4487 42.2998 48.2807 42.2674 47.3033C42.3404 45.9617 41.6275 43.9872 41.3529 46.189C41.2335 47.1445 41.247 47.6752 41.194 48.6413C41.4626 49.0873 41.9258 50.0429 42.3161 50.4254Z" fill="#F2FAFF" stroke="#101820" stroke-width="0.5"/>
<path fill-rule="evenodd" clip-rule="evenodd" d="M11.9187 51.4818C11.6625 51.1713 11.4782 50.8205 11.3312 50.4747C11.0442 49.7973 11.0231 49.3654 10.989 48.5997C10.4842 37.2949 10.9263 27.4136 13.6883 19.3332C14.0282 18.3403 14.0872 18.0439 14.7871 17.5936C16.4605 16.5188 19.0197 16.3685 21.5308 16.5704C21.5957 16.3156 21.7422 16.0608 21.6773 15.8061C19.6602 15.5428 17.5463 15.8456 15.5292 16.4426C14.1617 16.7284 12.8273 17.0425 12.5046 19.883C9.74375 29.4121 9.94697 38.4445 10.2318 47.311C10.2556 48.0436 10.2848 48.4952 10.4534 49.2023C10.9858 51.4373 11.509 51.3668 11.9187 51.4818Z" fill="#101820"/>
<path fill-rule="evenodd" clip-rule="evenodd" d="M22.507 50.0803C22.507 47.7232 22.36 45.3661 22.36 43.0083C22.107 41.5242 22.1962 40.2462 21.6892 39.062C21.1752 37.8595 20.786 37.2462 20.3109 36.4467C21.7422 39.3563 22.1978 43.5397 21.6773 48.997C21.9703 49.3583 22.214 49.7189 22.507 50.0803Z" fill="#101820"/>
<path d="M21.3109 48.992C21.3844 47.1974 21.2627 45.7853 21.3357 43.9907C21.8319 44.0888 22.3686 44.3908 22.6043 45.424C22.588 47.1868 22.5718 48.5672 22.5556 50.3293C22.1075 50.107 21.7584 49.7246 21.3109 48.992Z" stroke="#101820" stroke-width="0.5"/>
<path fill-rule="evenodd" clip-rule="evenodd" d="M25.2392 53.3929C24.8489 53.2016 24.5235 52.841 24.2625 52.3096C24.1982 48.105 24.1333 43.9004 24.0679 39.6957C24.2306 39.9082 24.3933 40.1206 24.556 40.333C24.67 41.225 24.7181 42.117 24.7024 43.0083C24.7511 43.1784 24.7997 43.3485 24.8489 43.5186C24.7846 46.81 25.0332 50.1014 25.2392 53.3929Z" fill="#101820"/>
<path d="M24.0436 52.6871C24.0517 51.2637 24.0598 49.841 24.0679 48.4183C24.5889 47.2016 25.077 46.5284 25.3364 49.661C25.3283 51.1473 25.3202 52.6335 25.3116 54.1204C24.7916 53.8974 24.369 53.4197 24.0436 52.6871Z" stroke="#101820" stroke-width="0.5"/>
<path fill-rule="evenodd" clip-rule="evenodd" d="M21.8476 39.1227C21.8805 38.9103 21.8076 38.6978 21.7746 38.4854C21.8562 38.5066 21.9373 38.5278 22.0189 38.5489C22.4416 38.9949 22.8642 39.441 23.2874 39.887C23.4826 39.7592 23.6128 39.5899 23.6777 39.3774C23.8241 39.3774 24.0112 39.4621 24.0922 39.6322C24.1084 40.6936 24.0517 41.7557 24.0679 42.8178C24.2144 43.0083 24.2955 43.1996 24.3122 43.3908C24.8322 43.3852 25.3521 43.5023 25.8732 43.5821C25.9056 43.7521 25.9386 43.858 25.971 44.0281C25.3364 43.9638 24.7181 43.9215 24.2144 44.0281C24.2144 44.1763 24.2144 44.3569 24.2144 44.5058C24.5392 44.4416 24.9949 44.527 25.5808 44.6329C25.597 44.7818 25.6132 44.8347 25.6289 44.9836C25.1413 44.9194 24.6538 44.9088 24.1657 45.0153C24.2252 47.6483 24.2474 50.2496 24.1657 52.8833C24.0031 52.3949 23.6939 51.9066 23.5312 51.4175C23.8868 48.0626 23.8209 44.6434 23.6534 41.2885C23.2415 40.3753 22.5437 39.6957 21.8476 39.1227Z" fill="#101820" stroke="#101820" stroke-width="0.216"/>
<path fill-rule="evenodd" clip-rule="evenodd" d="M23.0437 15.9331C24.2846 15.4348 24.2695 15.818 25.5943 14.787C27.0282 13.672 28.8626 13.0347 30.6549 12.8752C30.0371 12.4504 29.1912 12.3657 28.3129 12.6205C25.8245 13.576 24.2306 14.6381 23.0437 15.9331Z" fill="#101820"/>
<path fill-rule="evenodd" clip-rule="evenodd" d="M32.8017 14.5316C37.1279 12.9176 41.4545 13.1731 45.7806 15.2966C42.3009 13.2662 38.4142 12.437 32.8504 14.1498C32.8504 14.4045 32.8017 14.2768 32.8017 14.5316Z" fill="#101820"/>
</g>
<defs>
<clipPath id="clip0_33_1169">
<rect width="54.4333" height="47.3333" fill="white" transform="translate(8.28334 9.46667)"/>
</clipPath>
</defs>
</svg>
